<svg aria-hidden="true" style="width:0;height:0;position:absolute;overflow:hidden" xmlns="http://www.w3.org/2000/svg"><defs><symbol id="icon-logo-fruits" viewBox="0 0 32 32"><path d="M29.082.314H25.052a2.22 2.22 0 0 0-2.22 2.195v3.929a2.22 2.22 0 0 0 2.22 2.196h4.05a2.22 2.22 0 0 0 2.22-2.195V2.51a2.22 2.22 0 0 0-2.22-2.196h-.021.001zM6.73 23.04H2.412C1.08 23.04 0 24.024 0 25.236v3.928c0 1.214 1.08 2.196 2.412 2.196h4.32c1.33 0 2.41-.982 2.41-2.196v-3.928c0-1.214-1.08-2.196-2.412-2.196zm-.48-11.46H2.24c-1.238 0-2.24.986-2.24 2.2v3.928a2.22 2.22 0 0 0 2.22 2.196h4.05a2.22 2.22 0 0 0 2.22-2.195V13.78c0-1.214-1.004-2.196-2.24-2.196zm11.516 11.4h-4.01c-1.236 0-2.24.98-2.24 2.194v3.928a2.22 2.22 0 0 0 2.22 2.196h4.05a2.22 2.22 0 0 0 2.22-2.195v-3.929a2.22 2.22 0 0 0-2.22-2.196h-.021.001zM6.25.086H2.24C1.002.086 0 1.07 0 2.282V6.21a2.22 2.22 0 0 0 2.22 2.196h4.05a2.22 2.22 0 0 0 2.22-2.195V2.282C8.49 1.07 7.486.086 6.25.086zm11.826 11.612h-4.01c-1.236 0-2.24.982-2.24 2.194v3.93a2.22 2.22 0 0 0 2.22 2.196h4.03c1.238 0 2.24-.984 2.24-2.196v-3.93c0-1.212-1.002-2.194-2.24-2.194zM29.334 22.98h-4.01c-1.238 0-2.24.98-2.24 2.194v3.928a2.22 2.22 0 0 0 2.22 2.196h4.05a2.22 2.22 0 0 0 2.22-2.195v-3.929c0-1.214-1.004-2.196-2.24-2.196zM17.59.224h-4.008c-1.238 0-2.24.982-2.24 2.196v3.928a2.22 2.22 0 0 0 2.22 2.196H17.61a2.22 2.22 0 0 0 2.22-2.195V2.42c0-1.214-1.002-2.196-2.24-2.196zm11.454 11.702h-4.01c-1.236 0-2.24.982-2.24 2.196v3.928a2.22 2.22 0 0 0 2.22 2.196h4.05a2.22 2.22 0 0 0 2.22-2.195v-3.929c0-1.214-1.004-2.196-2.24-2.196z"/></symbol><symbol id="icon-cart" viewBox="0 0 27 32"><path d="M24.223 8.223h-4.667V6.667a6.223 6.223 0 1 0-12.446 0v1.556H2.443A1.557 1.557 0 0 0 .888 9.778V26.89a4.667 4.667 0 0 0 4.667 4.667H21.11a4.667 4.667 0 0 0 4.667-4.667V9.778a1.557 1.557 0 0 0-1.555-1.555zm-14-1.556a3.111 3.111 0 0 1 6.222 0v1.556h-6.221V6.667zm12.444 20.222c0 .859-.696 1.555-1.555 1.555H5.556A1.556 1.556 0 0 1 4 26.889V11.333h3.111v1.556a1.556 1.556 0 0 0 3.112 0v-1.556h6.221v1.556a1.556 1.556 0 0 0 3.112 0v-1.556h3.111v15.556z"/></symbol><symbol id="icon-menu" viewBox="0 0 32 32"><path d="M2.667 7.993c0-.733.595-1.327 1.327-1.327h10.68a1.327 1.327 0 1 1 0 2.654H3.994a1.327 1.327 0 0 1-1.327-1.327zm0 8.007c0-.733.595-1.327 1.327-1.327h24.013a1.327 1.327 0 1 1 0 2.654H3.994A1.327 1.327 0 0 1 2.667 16zm1.326 6.68a1.327 1.327 0 1 0 0 2.654h16.013a1.327 1.327 0 1 0 0-2.654H3.993z"/></symbol></defs></svg>