<svg aria-hidden="true" style="width:0;height:0;position:absolute;overflow:hidden" xmlns="http://www.w3.org/2000/svg"><defs><symbol id="logo-icon" viewBox="0 0 32 32"><path d="M29.082.314h-4.009c-1.237 0-2.24.983-2.24 2.195v3.929c0 1.212 1.003 2.195 2.24 2.195h4.009c1.237 0 2.24-.983 2.24-2.195V2.509c0-1.212-1.003-2.195-2.24-2.195zM6.73 23.04H2.412C1.08 23.04 0 24.023 0 25.235v3.929c0 1.213 1.08 2.195 2.412 2.195H6.73c1.332 0 2.412-.983 2.412-2.195v-3.929c0-1.212-1.08-2.195-2.412-2.195zM6.25 11.582H2.241c-1.237 0-2.24.983-2.24 2.195v3.929c0 1.212 1.003 2.195 2.24 2.195H6.25c1.237 0 2.24-.983 2.24-2.195v-3.929c0-1.212-1.003-2.195-2.24-2.195zM17.766 22.978h-4.009c-1.237 0-2.24.983-2.24 2.195v3.929c0 1.212 1.003 2.195 2.241 2.195h4.009c1.237 0 2.24-.983 2.24-2.195v-3.929c0-1.213-1.003-2.195-2.24-2.195zM6.25.086H2.241c-1.237 0-2.24.983-2.24 2.195V6.21c0 1.212 1.003 2.195 2.24 2.195H6.25c1.237 0 2.24-.983 2.24-2.195V2.281C8.49 1.069 7.487.086 6.25.086zM18.076 11.697h-4.009c-1.237 0-2.24.983-2.24 2.195v3.929c0 1.212 1.003 2.195 2.24 2.195h4.009c1.237 0 2.24-.983 2.24-2.195v-3.929c0-1.212-1.003-2.195-2.24-2.195zM29.333 22.978h-4.01c-1.237 0-2.24.983-2.24 2.195v3.929c0 1.212 1.003 2.195 2.24 2.195h4.009c1.237 0 2.24-.983 2.24-2.195v-3.929c0-1.213-1.003-2.195-2.24-2.195zM17.591.224h-4.009c-1.237 0-2.24.983-2.24 2.195v3.929c0 1.212 1.003 2.195 2.24 2.195h4.009c1.237 0 2.24-.984 2.24-2.196V2.418c0-1.212-1.003-2.195-2.24-2.195zM29.044 11.926h-4.01c-1.237 0-2.24.983-2.24 2.195v3.929c0 1.212 1.003 2.195 2.24 2.195h4.009c1.237 0 2.24-.983 2.24-2.195v-3.929c0-1.212-1.003-2.195-2.24-2.195z"/></symbol><symbol id="icon-Linkedin" viewBox="0 0 32 32"><path d="M27.313 0H4.688A4.694 4.694 0 0 0 0 4.688v22.625A4.693 4.693 0 0 0 4.688 32h22.625A4.693 4.693 0 0 0 32 27.313V4.688A4.694 4.694 0 0 0 27.313 0zm-16 25.375h-3.75V12.25h3.75v13.125zm0-15h-3.75v-3.75h3.75v3.75zm13.125 15h-3.75v-7.5c0-1.034-.841-1.875-1.875-1.875s-1.875.841-1.875 1.875v7.5h-3.75V12.25h3.75v.707c.982-.305 1.621-.707 2.812-.707 2.543.003 4.688 2.284 4.688 4.98v8.145z"/></symbol><symbol id="icon-insta" viewBox="0 0 32 32"><path d="M23.169 0H8.831C3.962 0 0 3.962 0 8.831v14.338C0 28.038 3.961 32 8.831 32h14.338C28.039 32 32 28.038 32 23.169V8.831C32 3.962 28.039 0 23.169 0zm5.992 23.169a5.999 5.999 0 0 1-5.992 5.992H8.83a5.998 5.998 0 0 1-5.991-5.992V8.831A5.999 5.999 0 0 1 8.83 2.839h14.338a5.999 5.999 0 0 1 5.992 5.992v14.338z"/><path d="M16 7.755c-4.547 0-8.246 3.699-8.246 8.246s3.699 8.245 8.246 8.245 8.246-3.699 8.246-8.245c0-4.547-3.699-8.246-8.246-8.246zm0 13.651c-2.981 0-5.406-2.425-5.406-5.406s2.425-5.406 5.406-5.406 5.406 2.425 5.406 5.406A5.412 5.412 0 0 1 16 21.406zM24.591 5.347c-.547 0-1.084.221-1.471.609a2.093 2.093 0 0 0-.611 1.473 2.1 2.1 0 0 0 .611 1.473c.386.386.924.609 1.471.609.549 0 1.085-.223 1.473-.609a2.1 2.1 0 0 0 .61-1.473 2.09 2.09 0 0 0-.61-1.473 2.091 2.091 0 0 0-1.473-.609z"/></symbol><symbol id="icon-Group" viewBox="0 0 39 32"><path d="M39.385 3.788a16.86 16.86 0 0 1-4.652 1.275A8.029 8.029 0 0 0 38.285.6a16.134 16.134 0 0 1-5.12 1.954 8.091 8.091 0 0 0-5.898-2.555c-4.47 0-8.069 3.628-8.069 8.076 0 .64.054 1.255.187 1.841C12.672 9.589 6.733 6.371 2.743 1.47a8.126 8.126 0 0 0-1.105 4.081 8.087 8.087 0 0 0 3.586 6.71 7.981 7.981 0 0 1-3.648-.994v.089c0 3.924 2.799 7.183 6.469 7.934a8.047 8.047 0 0 1-2.117.266c-.517 0-1.039-.03-1.529-.138 1.046 3.198 4.015 5.548 7.545 5.625a16.223 16.223 0 0 1-10.011 3.444c-.662 0-1.297-.03-1.932-.111 3.577 2.306 7.815 3.623 12.386 3.623 14.858 0 22.981-12.308 22.981-22.976 0-.357-.012-.702-.03-1.044 1.602-1.137 2.949-2.558 4.047-4.192z"/></symbol><symbol id="icon-fb" viewBox="0 0 32 32"><path d="M27.313 0H4.688A4.694 4.694 0 0 0 0 4.688v22.625A4.693 4.693 0 0 0 4.688 32h9.438V20.687h-3.75v-5.625h3.75V11.25a5.63 5.63 0 0 1 5.625-5.625h5.688v5.625h-5.688v3.812h5.688l-.938 5.625h-4.75V32h7.563a4.693 4.693 0 0 0 4.687-4.687V4.688A4.694 4.694 0 0 0 27.314 0z"/></symbol><symbol id="icon-bag" viewBox="0 0 27 32"><path d="M24.222 8.222h-4.667V6.666a6.223 6.223 0 0 0-12.445 0v1.556H2.443A1.555 1.555 0 0 0 .887 9.778v17.111a4.667 4.667 0 0 0 4.667 4.667h15.555a4.667 4.667 0 0 0 4.667-4.667V9.778a1.555 1.555 0 0 0-1.556-1.556zm-14-1.555a3.114 3.114 0 0 1 3.111-3.111 3.114 3.114 0 0 1 3.111 3.111v1.556h-6.222V6.667zm12.445 20.222a1.555 1.555 0 0 1-1.556 1.556H5.556A1.555 1.555 0 0 1 4 26.889V11.333h3.111v1.556a1.555 1.555 0 0 0 2.656 1.1c.292-.292.456-.687.456-1.1v-1.556h6.222v1.556a1.555 1.555 0 0 0 2.656 1.1c.292-.292.456-.687.456-1.1v-1.556h3.111v15.556z"/></symbol><symbol id="icon-oval" viewBox="0 0 85 32"><path d="M42.723 22.468c18.331 0 33.192-2.896 33.192-6.468s-14.86-6.468-33.191-6.468C24.393 9.532 9.533 12.428 9.533 16s14.86 6.468 33.191 6.468z"/></symbol><symbol id="icon-arrow" viewBox="0 0 30 32"><path d="M29.867 4.588 25.442.163v22.123L3.319.163 0 3.482l22.124 22.123H0l4.425 4.425h25.442V4.588z"/></symbol><symbol id="icon-youtube" viewBox="0 0 32 32"><path d="M24.24 6c-1.36-.08-4.16-.16-8.4-.16h-.56c-4.08 0-6.8.08-8.16.24-1.84.16-3.12.64-3.84 1.28-.64.56-1.12 1.6-1.28 2.96-.08.88-.16 2.72-.16 5.52v.4c0 2.64.08 4.48.24 5.36.24 1.28.64 2.24 1.44 2.8.8.64 2.16 1.04 4.08 1.2 1.36.08 4.16.16 8.4.16h.56c4.08 0 6.8-.08 8.16-.24 1.84-.16 3.12-.64 3.84-1.28.64-.56 1.12-1.6 1.28-2.96.08-.88.16-2.72.16-5.52v-.4c0-2.64-.08-4.48-.24-5.36-.24-1.28-.64-2.24-1.44-2.8-.8-.64-2.16-1.04-4.08-1.2zm-3.12 9.84-8.8 5.28V10.56l8.8 5.28z"/></symbol><symbol id="icon-facebok" viewBox="0 0 32 32"><path d="M19.52 4.64h.96v3.6h-1.2c-.48 0-.96 0-1.2.24s-.24.48-.24 1.04v1.28h2.64v3.04h-2.64v13.2h-4.08V13.76H11.6v-3.04h2.16V9.68c0-1.76.24-3.04.72-3.6.72-1.04 2.16-1.52 4.32-1.52.24.08.48.08.72.08z"/></symbol><symbol id="icon-Frame" viewBox="0 0 32 32"><path fill="#fff" style="fill:var(--color1,#fff)" d="m32 2.667-32 15 10.227 3.156L26 8.5 14.002 21.988l.01.003-.012-.003v7.345l5.735-5.576L27 25.999l5-23.333z"/></symbol><symbol id="icon-x" viewBox="0 0 32 32"><path fill="none" stroke="#ae1332" style="stroke:var(--color2,#ae1332)" stroke-linejoin="round" stroke-linecap="round" stroke-width="3.429" d="M24 8 8 24M8 8l16 16"/></symbol><symbol id="thx-icon" viewBox="0 0 32 32"><path fill="none" stroke="#ae1332" style="stroke:var(--color2,#ae1332)" stroke-linejoin="round" stroke-linecap="round" stroke-width="3.429" d="M24 8 8 24"/><path stroke="#ae1332" style="stroke:var(--color2,#ae1332)" stroke-linejoin="round" stroke-linecap="round" stroke-width="3.429" d="m8 8 16 16"/><symbol id="checkbox-icon" viewBox="0 0 32 32"><path d="M22.891 8.51a1.832 1.832 0 0 1 2.558.02 1.855 1.855 0 0 1 .068 2.571L15.728 23.41a1.845 1.845 0 0 1-1.314.591 1.83 1.83 0 0 1-1.336-.542l-6.492-6.527a1.863 1.863 0 0 1-.451-2.046 1.85 1.85 0 0 1 1.017-1.022 1.823 1.823 0 0 1 1.438.026c.225.101.429.247.597.429l5.137 5.163 8.521-10.915a.628.628 0 0 1 .049-.054h-.002z"/></symbol></symbol></defs></svg>